inDegrees=no
num_controls=7
num_derivatives=13
num_iterations=111
num_multipliers=7
num_parameters=0
num_slacks=7
num_states=26
objective=0.497123
objective_accelerations=0.032258
objective_balance=0.003262
objective_effort=0.035008
objective_height=0.421111
objective_ligament=0.005484
solver_duration=1238.117648
status=Solve_Succeeded
success=true
DataType=double
version=3
OpenSimVersion=4.5
endheader
time	/jointset/ground_pelvis/pelvis_tilt/value	/jointset/ground_pelvis/pelvis_tx/value	/jointset/ground_pelvis/pelvis_ty/value	/jointset/hip_r/hip_flexion_r/value	/jointset/hip_r/hip_adduction_r/value	/jointset/hip_r/hip_rotation_r/value	/jointset/back/lumbar_extension/value	/jointset/patellofemoral_r/patellar_flexion_r/value	/jointset/knee_r/knee_flexion_r/value	/jointset/knee_r/knee_adduction_r/value	/jointset/knee_r/knee_rotation_r/value	/jointset/ankle_r/ankle_angle_r/value	/jointset/subtalar_r/subtalar_angle_r/value	/jointset/ground_pelvis/pelvis_tilt/speed	/jointset/ground_pelvis/pelvis_tx/speed	/jointset/ground_pelvis/pelvis_ty/speed	/jointset/hip_r/hip_flexion_r/speed	/jointset/hip_r/hip_adduction_r/speed	/jointset/hip_r/hip_rotation_r/speed	/jointset/back/lumbar_extension/speed	/jointset/patellofemoral_r/patellar_flexion_r/speed	/jointset/knee_r/knee_flexion_r/speed	/jointset/knee_r/knee_adduction_r/speed	/jointset/knee_r/knee_rotation_r/speed	/jointset/ankle_r/ankle_angle_r/speed	/jointset/subtalar_r/subtalar_angle_r/speed	/forceset/tau_hip_flexion_r	/forceset/tau_hip_adduction_r	/forceset/tau_hip_rotation_r	/forceset/tau_knee_flexion_r	/forceset/tau_ankle_angle_r	/forceset/tau_subtalar_angle_r	/forceset/tau_lumbar_extension	lambda_cid13_p0	lambda_cid14_p0	lambda_cid14_p1	lambda_cid14_p2	lambda_cid14_p3	lambda_cid14_p4	lambda_cid14_p5	/jointset/ground_pelvis/pelvis_tilt/accel	/jointset/ground_pelvis/pelvis_tx/accel	/jointset/ground_pelvis/pelvis_ty/accel	/jointset/hip_r/hip_flexion_r/accel	/jointset/hip_r/hip_adduction_r/accel	/jointset/hip_r/hip_rotation_r/accel	/jointset/back/lumbar_extension/accel	/jointset/patellofemoral_r/patellar_flexion_r/accel	/jointset/knee_r/knee_flexion_r/accel	/jointset/knee_r/knee_adduction_r/accel	/jointset/knee_r/knee_rotation_r/accel	/jointset/ankle_r/ankle_angle_r/accel	/jointset/subtalar_r/subtalar_angle_r/accel	gamma_cid13_p0	gamma_cid14_p0	gamma_cid14_p1	gamma_cid14_p2	gamma_cid14_p3	gamma_cid14_p4	gamma_cid14_p5
1.5	-0.1074134374451747	0.06222495024419333	0.8715845999926781	0.6627521988847719	-0.2275022348228871	-0.1440800919771333	-0.2793059945633643	0.6425295458983217	0.6425295458983113	0.04214060956619644	0.1743713941867818	0.2571810832496956	0.05844387886497702	0.2319644027954324	0.1157253375669309	0.3215617936203035	-1.435494666371503	0.01857218125795462	-0.28059969262696	0.700164314712092	-1.73441004444629	-1.734410044446211	0.2766866788041336	0.0006071095072745186	-0.6204151257818129	-0.1532377385165673	-0.06441507096166459	-0.01727970179100218	0.006612564470465757	-0.3218424110147656	0.05515573381215123	-0.01156825690351414	0.1217486301151735	-34.4772908495597	-24.0287635885362	-5.150714917890102	-3.379940980958779	3.271250685466024	-662.6979999207158	57.8364093404005	0.04737728470585084	0.2638704464253459	-0.4424421942513713	-0.7142953505398614	-0.02168216439785689	-0.550010775378019	1.196171545031476	-0.9989761318168048	-0.9989761318168054	0.3881680615750427	-0.0005055512527025168	-0.4527054086324471	-0.03359043224340166	1.161296907872135e-07	1.51623648902013e-07	-5.896033996692758e-07	1.228479152487167e-06	-1.762592362041722e-08	1.829840603978733e-07	-9.016588188409624e-07
1.51	-0.1050918406724167	0.06339521197869488	0.874777368623936	0.6483635453609414	-0.2273183489429434	-0.146912722213691	-0.2722455518416729	0.625137989912665	0.6251379899126602	0.04492862828349264	0.1743777098280849	0.2509549187927256	0.05690899501145183	0.2323217576626892	0.1183061013721261	0.3169235509636077	-1.442026401405706	0.0182053654079826	-0.2859092140706899	0.7118084723669167	-1.743642010659621	-1.743642010659611	0.2808985146919291	0.0006508481513760039	-0.6247277217546681	-0.1537117373210461	-0.05883252220647493	-0.01925564849197155	0.005964917197715515	-0.31884632945625	0.05933235931492985	-0.01230920005388982	0.1165469080312719	-35.3620790462038	-22.56277070270122	-5.106614414141422	-3.511712471375084	2.765123748448003	-659.6040586290977	58.00628280688938	0.02495025273061578	0.2520434952196386	-0.4847338705360505	-0.5911488111275235	-0.04398698327039202	-0.5186436307327582	1.131174286694671	-0.8464618990694119	-0.8464618990798294	0.4348712495063732	0.006256903023466292	-0.407013958723658	-0.05018555392217773	1.263956425258495e-07	1.532184635710015e-07	-7.213924540966373e-07	1.25153112308358e-06	-4.865575742785501e-09	1.898618161076167e-07	-9.949992470010725e-07
1.52	-0.1027676632179898	0.06459065418077888	0.8779217111147952	0.6339158672405126	-0.2271380923590932	-0.1497978918250591	-0.2650721402612367	0.6076618832582728	0.6076618832582831	0.04775820133908954	0.1743843515219946	0.2446883329226047	0.05537019498000744	0.2324805391297557	0.1207614310834171	0.3118765655406134	-1.447299585690587	0.01784632203907149	-0.2911075675889129	0.7227580864612165	-1.751320178192082	-1.751320178192141	0.2849975464647079	0.0006723200267518024	-0.628499408411987	-0.1540209741004069	-0.05324997345129463	-0.02123159519294652	0.005317269925051285	-0.3158502478977385	0.06350898481770634	-0.01305014320427518	0.111345185947363	-36.21317653885586	-21.10546041377641	-5.061267820817942	-3.646843322027288	2.254558338371576	-656.6536003975079	58.24964345440321	0.00766260466768918	0.2387836276445995	-0.5241907475110991	-0.4625852006752763	-0.02012766818568584	-0.5277771902766369	1.057262832926415	-0.6882163956428742	-0.6882163956428746	0.3656072385717469	-0.004958904997865944	-0.344523545525134	-0.0006380272197593492	1.360001324815301e-07	1.538144087269545e-07	-8.448879243389163e-07	1.267112145048809e-06	7.687024779788256e-09	1.943592886356375e-07	-1.078056012645352e-06
1.53	-0.1004429001121839	0.06581000354108933	0.8810135981539493	0.619421766450709	-0.2269614456839314	-0.1527346700978479	-0.2577927358143566	0.5901168288074141	0.5901168288074207	0.0506281944715067	0.1743913065806643	0.2383867643607537	0.05382905978412669	0.2324399413614232	0.1230853285881762	0.3064387882144714	-1.451308739576438	0.0174825972620006	-0.2962243827631702	0.7330007599794676	-1.757423790035578	-1.757423790035561	0.2889841095729152	0.0007129718547123406	-0.6317194552733919	-0.154180179509055	-0.04763518217276753	-0.02336279666527994	0.004687239550531979	-0.3129343937661727	0.06779719273190456	-0.01389585755237858	0.106138601899795	-37.02608125128564	-19.62655387864368	-5.063441954732586	-3.767772280248093	1.746390465355042	-653.8386479787306	58.4524610337193	-0.01472726880087544	0.2257312777432126	-0.5628398602090374	-0.3382875928960021	-0.04444043678824529	-0.4998533452970061	0.9894631708474353	-0.5314252205961946	-0.5314252205846572	0.4125692111796009	0.007940432674111375	-0.2964968182643651	-0.0196887272747755	1.449018192928203e-07	1.533490550253071e-07	-9.595714613845451e-07	1.274755284093404e-06	2.001889373761293e-08	1.96327710283078e-07	-1.150186386866562e-06
1.54	-0.09811950424430736	0.06705189956961756	0.884049253692833	0.6048939326999732	-0.2267884253674027	-0.1557218604552394	-0.2504145659203802	0.5725187399097398	0.5725187399097477	0.05353753090785197	0.1743985407988106	0.2320558450179255	0.05228710714824202	0.2322070915444132	0.1252707647269712	0.3006302654865926	-1.454046177876529	0.01712105031211219	-0.3011899845092975	0.7425111758806456	-1.761927067554802	-1.761927067554708	0.2928662072504967	0.0007281519219165991	-0.6343695646074438	-0.1541844621012009	-0.04202039089424858	-0.02549399813761768	0.004057209176033833	-0.3100185396346093	0.07208540064610142	-0.01474157190048864	0.1009320178522208	-37.79631905512954	-18.1569728552291	-5.064163947483554	-3.892457384189075	1.234211031997399	-651.1797254454076	58.73282114359053	-0.03078780506792486	0.2110913544518698	-0.598339827858435	-0.208242083523332	-0.01969210274919313	-0.4975345046505919	0.9108113095117293	-0.3681495307883286	-0.368149530788333	0.3447141524465979	-0.01005325714915014	-0.2305360400544136	0.03034653608069157	1.544132908791971e-07	1.520930957490594e-07	-1.083042817944704e-06	1.277170083227279e-06	3.361820433476651e-08	1.966503864946102e-07	-1.221794310882093e-06
1.55	-0.09579945073266651	0.06831493972857416	0.8870250402099699	0.5903451156765054	-0.2266190359267327	-0.1587582294099686	-0.2429449549476584	0.5548836263811708	0.5548836263811672	0.0564850681261427	0.1744060552974454	0.2257012805192362	0.05074585903399922	0.2317684427102283	0.1273121201059837	0.2944725051600749	-1.455502102946549	0.0167583276522187	-0.3060560062816342	0.751285520522592	-1.764827592868782	-1.764827592868798	0.2966197946456761	0.000767226531688991	-0.6364463256001713	-0.1540378525702216	-0.03634367140785755	-0.0277736556705656	0.00343206934305033	-0.3072673860330498	0.07658341384834469	-0.01573102671688966	0.09571014452641718	-38.51946078188602	-16.63932612654513	-5.126401393962518	-3.998761974152442	0.7090393984787641	-648.7124899183211	58.95519980652746	-0.05566403722147604	0.1968969950041511	-0.6326352116044091	-0.08198181248819539	-0.04425356637357655	-0.4767259990371445	0.841921320231107	-0.2108312985828701	-0.2108312985992813	0.3873623444803713	0.009980336157198035	-0.181667652304001	0.01086135692047742	1.646273405759997e-07	1.499262213542506e-07	-1.216639270902039e-06	1.273560925507498e-06	4.867782812505983e-08	1.950768777473786e-07	-1.292800281399778e-06
1.56	-0.09348483583229555	0.06959764131439637	0.8899376209085303	0.5757881965835856	-0.226453211956412	-0.1618423765795247	-0.2353913654727788	0.5372275421460849	0.5372275421460715	0.05946947748066918	0.1744137790454004	0.2193288641059352	0.04920688565412905	0.2311193692909448	0.1292030501000915	0.2879891017713109	-1.455666591766442	0.01640795624176073	-0.3107456274744492	0.7593068763123476	-1.766121208857963	-1.766121208858087	0.3002406344979253	0.0007700017861323486	-0.6379399475297811	-0.1537295152266855	-0.03066695192147608	-0.03005331320352127	0.002806929510078565	-0.3045162324314933	0.08108142705058542	-0.01672048153330179	0.09048827120060719	-39.19121612141374	-15.1315967065748	-5.186833746162805	-4.10940046068393	0.1802032829010808	-646.4134891108616	59.25878395938291	-0.07287272208777455	0.1810062774710006	-0.6634684403076744	0.05004516650216072	-0.01722185286208894	-0.4622543887462164	0.7602135390735517	-0.04676766582836972	-0.04676766582836978	0.3181646438605735	-0.01731312821498791	-0.1139082274307777	0.06269209859208004	1.748563268375807e-07	1.487081493479735e-07	-1.348926209587325e-06	1.270949153779725e-06	6.228539441822304e-08	1.983982558257399e-07	-1.36137403075282e-06
1.57	-0.09117774598564708	0.07089849272700163	0.8927838281242474	0.5612360012030168	-0.2262908608379052	-0.1649728206283925	-0.2277613690374702	0.5195665060869405	0.5195665060869122	0.06248936451775302	0.1744216161486329	0.2129444205524629	0.04767176837626615	0.2302605631070213	0.1309410624077017	0.2812056092289231	-1.454555103268155	0.01606424960330623	-0.315311709518539	0.7665676966390892	-1.765816598257135	-1.765816598257235	0.3037123347737413	0.0007906004074946787	-0.638848901267659	-0.1532667953939188	-0.02496490889110934	-0.03249750998066531	0.002176229244412626	-0.3019057109427584	0.08576323307144988	-0.01784222468209552	0.0852882380393378	-39.80754467265363	-13.5845631343351	-5.303544719614368	-4.204546263245073	-0.3636901781923584	-644.3322557968755	59.51422904993977	-0.09807617485407209	0.1662893792055092	-0.6927568279974258	0.1743245312979094	-0.04259513259016324	-0.4488094137502278	0.6903091627894256	0.1094479292565104	0.1094479292602008	0.357868398093203	0.01094632398599982	-0.06437661344054284	0.04203875161538091	1.851039838051348e-07	1.486760803273613e-07	-1.479576255432551e-06	1.269584114541963e-06	7.407788883997364e-08	2.078382424360921e-07	-1.426907503650061e-06
1.58	-0.0888803825225023	0.07221594239704272	0.895560806981182	0.5467014454753892	-0.2261318767984307	-0.1681479303580044	-0.2200625058222319	0.5019165906350447	0.5019165906350073	0.06554320769332089	0.1744294992314183	0.2065538899283169	0.04614207366193024	0.2291740925907311	0.1325227015872553	0.2741434300148046	-1.45213866117763	0.01573454043473209	-0.3196787636230251	0.7730802322984384	-1.763897087407579	-1.763897087407655	0.3070318621956004	0.000779197695823715	-0.6391573616645054	-0.1526450025212957	-0.01926286586075197	-0.034941706757818	0.00154552897878568	-0.299295189454028	0.09044503909231116	-0.01896396783090193	0.08008820487806272	-40.36767538560342	-12.04645610275008	-5.418020992560973	-4.304386972395128	-0.9147263841826867	-642.4073098454146	59.85158493041292	-0.118405588561234	0.1497316518597742	-0.719205774653817	0.3110358849499202	-0.01442235888602245	-0.4224488008254527	0.6105566055949757	0.2762123839173446	0.2762123839173452	0.2877300730692094	-0.02371339482167933	0.006190440775677027	0.09450670656339374	1.954429991215493e-07	1.504110739146646e-07	-1.607429755135317e-06	1.274036022923829e-06	8.371574790679543e-08	2.254847960244399e-07	-1.492330683414632e-06
1.59	-0.08659492066147634	0.07354839778157804	0.8982658764054413	0.532197393663004	-0.2259761274560789	-0.1713659625238382	-0.2123024614644118	0.4842938224362908	0.4842938224362766	0.06862941211700647	0.1744373175083591	0.2001632165954477	0.04461937197111804	0.2278770070820467	0.1339388287196435	0.2668311816315229	-1.448446368600772	0.01541980921573888	-0.3238919221857163	0.7787985734445764	-1.760383470208948	-1.760383470208948	0.3101758352291237	0.0007769536601158743	-0.638876373321748	-0.1518662712464559	-0.01352405031161868	-0.03748761898842814	0.0008983836292791849	-0.2968202061381821	0.09522311895622737	-0.02025359150954555	0.07488826197139485	-40.87149365921483	-10.50102362521076	-5.610948735899155	-4.38392542291525	-1.430421961179545	-640.7174448674491	60.09792925042703	-0.1415381285653074	0.1331401403152868	-0.7430710663994784	0.4321422123554258	-0.03930307161949809	-0.4151154582981299	0.532962995825299	0.4298562796394743	0.4298562796508505	0.3225811717221808	0.01062573517628321	0.05423165123755291	0.07378443808333578	2.059060007685599e-07	1.545442238984243e-07	-1.731487942216171e-06	1.286382360218048e-06	9.042945899192826e-08	2.542688333686383e-07	-1.557604179642009e-06
